<?xml version="1.0" standalone="no"?><!DOCTYPE svg PUBLIC "-//W3C//DTD SVG 1.1//EN" "http://www.w3.org/Graphics/SVG/1.1/DTD/svg11.dtd"><svg t="1697217878817" class="icon" viewBox="0 0 1024 1024" version="1.1" xmlns="http://www.w3.org/2000/svg" p-id="9834" xmlns:xlink="http://www.w3.org/1999/xlink" width="200" height="200"><path d="M1006.933333 85.333333H580.266667V34.133333c0-6.826667-3.413333-10.24-6.826667-13.653333s-10.24-3.413333-13.653333-3.413333l-546.133334 136.533333c-6.826667 3.413333-13.653333 10.24-13.653333 17.066667v716.8c0 6.826667 6.826667 13.653333 13.653333 17.066666l546.133334 102.4h3.413333c3.413333 0 6.826667 0 10.24-3.413333 3.413333-3.413333 6.826667-6.826667 6.826667-13.653333v-51.2h426.666666c10.24 0 17.066667-6.826667 17.066667-17.066667V102.4c0-10.24-6.826667-17.066667-17.066667-17.066667z m-17.066666 682.666667h-238.933334v-102.4h238.933334v102.4zM174.08 672.426667l92.16-153.6c3.413333-6.826667 3.413333-13.653333 0-17.066667l-92.16-153.6C170.666667 344.746667 170.666667 341.333333 170.666667 337.92s3.413333-6.826667 6.826666-10.24c6.826667-3.413333 17.066667-3.413333 23.893334 6.826667L273.066667 457.386667c6.826667 10.24 23.893333 10.24 30.72 0L375.466667 334.506667c3.413333-6.826667 17.066667-10.24 23.893333-6.826667 6.826667 0 10.24 6.826667 10.24 10.24 0 3.413333 0 10.24-3.413333 13.653333l-92.16 153.6c-3.413333 6.826667-3.413333 13.653333 0 17.066667l92.16 153.6c3.413333 3.413333 3.413333 6.826667 3.413333 10.24s-3.413333 6.826667-6.826667 10.24c-6.826667 3.413333-17.066667 3.413333-23.893333-6.826667L307.2 566.613333c-3.413333-6.826667-10.24-6.826667-13.653333-6.826666s-10.24 3.413333-13.653334 6.826666l-71.68 122.88c-3.413333 6.826667-17.066667 10.24-23.893333 6.826667-10.24 0-13.653333-3.413333-13.653333-10.24 0-3.413333 0-6.826667 3.413333-13.653333zM580.266667 529.066667h136.533333v102.4h-136.533333v-102.4z m0-34.133334v-102.4h136.533333v102.4h-136.533333z m170.666666-102.4h238.933334v102.4h-238.933334v-102.4z m238.933334-34.133333h-238.933334v-102.4h238.933334v102.4z m-273.066667 0h-136.533333v-102.4h136.533333v102.4z m-136.533333 307.2h136.533333v102.4h-136.533333v-102.4z m170.666666-34.133333v-102.4h238.933334v102.4h-238.933334z m238.933334-512v102.4h-238.933334v-102.4h238.933334z m-273.066667 0v102.4h-136.533333v-102.4h136.533333z m-136.533333 682.666666h136.533333v102.4h-136.533333v-102.4z m409.6 102.4h-238.933334v-102.4h238.933334v102.4z" fill="#ffffff" p-id="9835"></path></svg>